<?xml version="1.0" encoding="UTF-8" standalone="no"?>
<!-- Uploaded to: SVG Repo, www.svgrepo.com, Generator: SVG Repo Mixer Tools -->

<svg
   version="1.1"
   id="Icons"
   viewBox="0 0 32 32"
   xml:space="preserve"
   sodipodi:docname="building-blocks-lego-toy-svgrepo-com.svg"
   inkscape:version="1.3.2 (091e20ef0f, 2023-11-25)"
   xmlns:inkscape="http://www.inkscape.org/namespaces/inkscape"
   xmlns:sodipodi="http://sodipodi.sourceforge.net/DTD/sodipodi-0.dtd"
   xmlns="http://www.w3.org/2000/svg"
   xmlns:svg="http://www.w3.org/2000/svg"><defs
   id="defs7" /><sodipodi:namedview
   id="namedview7"
   pagecolor="#ffffff"
   bordercolor="#000000"
   borderopacity="0.25"
   inkscape:showpageshadow="2"
   inkscape:pageopacity="0.0"
   inkscape:pagecheckerboard="0"
   inkscape:deskcolor="#d1d1d1"
   inkscape:zoom="28.6875"
   inkscape:cx="16"
   inkscape:cy="16"
   inkscape:window-width="1870"
   inkscape:window-height="1164"
   inkscape:window-x="50"
   inkscape:window-y="0"
   inkscape:window-maximized="1"
   inkscape:current-layer="Icons" />
<style
   type="text/css"
   id="style1">
	.st0{fill:none;stroke:#763600;stroke-width:2;stroke-linecap:round;stroke-linejoin:round;stroke-miterlimit:10;}
	.st1{fill:none;stroke:#763600;stroke-width:2;stroke-linejoin:round;stroke-miterlimit:10;}
</style>
<path
   class="st0"
   d="m 24.5,22 h -18 c -0.6,0 -1,0.4 -1,1 v 5 c 0,0.6 0.4,1 1,1 h 18 c 0.6,0 1,-0.4 1,-1 v -5 c 0,-0.6 -0.4,-1 -1,-1 z"
   id="path1" />
<path
   class="st0"
   d="m 10.5,22 h -4 v -2 c 0,-0.6 0.4,-1 1,-1 h 2 c 0.6,0 1,0.4 1,1 z"
   id="path2" />
<path
   class="st0"
   d="m 25.5,15 h -11 c -0.6,0 -1,0.4 -1,1 v 5 c 0,0.6 0.4,1 1,1 h 11 c 0.6,0 1,-0.4 1,-1 v -5 c 0,-0.6 -0.4,-1 -1,-1 z"
   id="path3" />
<path
   class="st0"
   d="m 25.5,15 h -4 v -2 c 0,-0.6 0.4,-1 1,-1 h 2 c 0.6,0 1,0.4 1,1 z"
   id="path4" />
<path
   class="st0"
   d="m 17.5,8 h -11 c -0.6,0 -1,0.4 -1,1 v 5 c 0,0.6 0.4,1 1,1 h 11 c 0.6,0 1,-0.4 1,-1 V 9 c 0,-0.6 -0.4,-1 -1,-1 z"
   id="path5" />
<path
   class="st0"
   d="m 10.5,8 h -4 V 6 c 0,-0.6 0.4,-1 1,-1 h 2 c 0.6,0 1,0.4 1,1 z"
   id="path6" />
<path
   class="st0"
   d="m 17.5,8 h -4 V 6 c 0,-0.6 0.4,-1 1,-1 h 2 c 0.6,0 1,0.4 1,1 z"
   id="path7" />
</svg>
